<svg width="46" height="23" viewBox="0 0 46 23" fill="none" xmlns="http://www.w3.org/2000/svg">
<path d="M0.126709 17.1749L2.44543 0.602332C3.73717 0.473726 5.53804 0.409424 7.84803 0.409424C9.87291 0.409424 11.2752 0.730937 12.0549 1.37104C12.8346 2.01114 13.1081 3.16567 12.8666 4.82877C12.692 6.03006 12.3487 6.92737 11.8396 7.51778C11.3305 8.11112 10.5711 8.45602 9.56743 8.54955L9.54416 8.66939C11.7436 8.84476 12.6368 10.3354 12.2207 13.1384C11.9647 14.8044 11.4236 15.9239 10.5944 16.4997C9.76527 17.0755 8.39498 17.3649 6.48356 17.3649C3.69644 17.3678 1.57846 17.3035 0.126709 17.1749ZM2.73346 15.3042L6.12863 15.3276C7.43491 15.3276 8.35134 15.1406 8.87793 14.7635C9.40451 14.3865 9.74781 13.647 9.90491 12.5422C10.0649 11.3584 9.93982 10.5605 9.53543 10.1513C9.12813 9.74207 8.28152 9.53162 6.98978 9.51409H3.54806L2.73346 15.3042ZM3.8099 7.66393H7.10906C8.25533 7.66393 9.08158 7.47102 9.58489 7.08813C10.0882 6.70523 10.417 5.98329 10.577 4.92522C10.7195 3.91684 10.5915 3.25335 10.1929 2.93184C9.79436 2.61325 8.97393 2.45249 7.73166 2.45249H4.5285L3.8099 7.66393Z" fill="white"/>
<path d="M23.2705 5.45458H25.6852C24.8241 9.26597 23.7011 12.4928 22.3133 15.135C21.0711 17.5055 19.8375 19.1861 18.6185 20.1799C17.3995 21.1736 15.9449 21.8138 14.2546 22.1002L13.824 20.4429C14.8451 20.2033 15.7354 19.8438 16.5005 19.3615C17.2657 18.8821 17.9988 18.1514 18.7 17.1752H17.6235C17.257 17.1752 16.9457 17.0758 16.6926 16.8741C16.4365 16.6754 16.2765 16.3977 16.2154 16.0441L13.9694 5.45166H16.4104L18.1792 14.9392C18.2258 15.211 18.3858 15.3484 18.6563 15.3484H19.8288C19.8928 15.2373 19.9801 15.0707 20.0906 14.8574C20.2012 14.6411 20.2739 14.5008 20.3059 14.4365C21.7082 11.5078 22.6974 8.5148 23.2705 5.45458Z" fill="white"/>
<path d="M30.4417 7.25484L29.5078 13.8371C29.4292 14.3983 29.4787 14.7782 29.662 14.977C29.8453 15.1787 30.2148 15.278 30.7733 15.278H32.5189L32.6149 17.0785C31.9138 17.286 31.0061 17.3913 29.8889 17.3913C28.8532 17.3913 28.1084 17.1019 27.6546 16.5261C27.2007 15.9503 27.0436 15.1261 27.1891 14.0534L28.1462 7.25484H26.0195L26.2348 5.5742L28.411 5.45436L28.9143 2.02002H31.1865L30.7093 5.45436H34.2965L34.058 7.25484H30.4417Z" fill="white"/>
<path d="M43.9032 15.2313L44.0458 16.7921C42.914 17.2393 41.311 17.4643 39.2396 17.4643C37.2467 17.4643 35.8677 16.9411 35.1025 15.8918C34.3374 14.8425 34.0988 13.2145 34.3839 11.0048C34.6865 8.7484 35.3033 7.20514 36.2372 6.38089C37.1682 5.55665 38.7043 5.14453 40.8397 5.14453C42.658 5.14453 43.8916 5.46604 44.5462 6.10615C45.2008 6.74625 45.4393 7.69033 45.2648 8.94131C45.0728 10.0783 44.6276 10.8996 43.9265 11.4023C43.2253 11.908 42.1489 12.2149 40.7001 12.326L36.659 12.6855C36.6416 13.7903 36.8743 14.5386 37.3514 14.9302C37.8286 15.3219 38.5792 15.5177 39.5974 15.5177C40.6826 15.5177 42.1169 15.4242 43.9032 15.2313ZM36.8016 10.9551L40.7001 10.5956C41.4332 10.5489 41.9685 10.391 42.3031 10.128C42.6377 9.86493 42.853 9.40312 42.949 8.74548C43.045 7.9943 42.9199 7.52957 42.5795 7.35128C42.2362 7.17591 41.5409 7.08822 40.4877 7.08822C39.2774 7.08822 38.4192 7.33959 37.9188 7.84524C37.4125 8.34797 37.0401 9.38558 36.8016 10.9551Z" fill="white"/>
</svg>
