<svg width="15" height="17" viewBox="0 0 15 17" fill="none" xmlns="http://www.w3.org/2000/svg">
<path d="M1.37048 3.68311L2.75129 14.9507C2.83172 15.6143 3.39477 16.1103 4.06171 16.1103H10.9121C11.579 16.1103 12.1421 15.6143 12.2225 14.9507L13.6033 3.68311H1.37048ZM5.16099 14.3072C5.16099 14.3072 5.14088 14.3072 5.12748 14.3072C4.92639 14.3072 4.75546 14.1531 4.73871 13.9486L4.08517 5.90513C4.06841 5.69063 4.22928 5.50295 4.44378 5.48619C4.65827 5.46944 4.84595 5.63031 4.86271 5.8448L5.51625 13.8883C5.533 14.1028 5.37213 14.2905 5.15764 14.3072H5.16099ZM7.87568 13.9185C7.87568 14.133 7.7014 14.3072 7.48691 14.3072C7.27241 14.3072 7.09814 14.133 7.09814 13.9185V5.87496C7.09814 5.66047 7.27241 5.48619 7.48691 5.48619C7.7014 5.48619 7.87568 5.66047 7.87568 5.87496V13.9185ZM10.8819 5.90513L10.2284 13.9486C10.2116 14.1531 10.0407 14.3072 9.83964 14.3072C9.82958 14.3072 9.81953 14.3072 9.80612 14.3072C9.59163 14.2905 9.43076 14.1028 9.44751 13.8883L10.101 5.8448C10.1178 5.63031 10.3055 5.46944 10.52 5.48619C10.7345 5.50295 10.8953 5.69063 10.8786 5.90513H10.8819Z" fill="white"/>
<path d="M14.1194 1.84976H10.5702C10.4093 1.84976 10.2685 1.74922 10.2149 1.5984L9.93674 0.797402C9.79263 0.388524 9.40721 0.110352 8.97152 0.110352H6.00212C5.56643 0.110352 5.18101 0.385172 5.0369 0.797402L4.75872 1.5984C4.7051 1.74922 4.56434 1.84976 4.40347 1.84976H0.854267C0.673288 1.84976 0.529175 1.99387 0.529175 2.17485V2.80158C0.529175 2.98256 0.673288 3.12667 0.854267 3.12667H14.1194C14.3003 3.12667 14.4445 2.98256 14.4445 2.80158V2.17485C14.4445 1.99387 14.3003 1.84976 14.1194 1.84976ZM5.90157 1.10239C5.92503 1.03871 5.98536 0.995139 6.05239 0.995139H8.92124C8.98827 0.995139 9.05195 1.03871 9.07206 1.10239L9.33347 1.84976H5.64016L5.90157 1.10239Z" fill="white"/>
</svg>
