<svg width="20" height="20" viewBox="0 0 20 20" fill="none" xmlns="http://www.w3.org/2000/svg">
<path d="M19.8791 9.49297C17.9962 5.81902 14.2684 3.33325 9.99998 3.33325C5.73158 3.33325 2.00276 5.82075 0.120814 9.49332C0.0413845 9.65044 0 9.82403 0 10.0001C0 10.1761 0.0413845 10.3497 0.120814 10.5069C2.0038 14.1808 5.73158 16.6666 9.99998 16.6666C14.2684 16.6666 17.9972 14.1791 19.8791 10.5065C19.9586 10.3494 20 10.1758 20 9.99974C20 9.82369 19.9586 9.65009 19.8791 9.49297ZM9.99998 14.9999C9.01107 14.9999 8.04438 14.7067 7.22213 14.1573C6.39988 13.6079 5.75902 12.827 5.38058 11.9133C5.00215 10.9997 4.90313 9.99437 5.09605 9.02447C5.28898 8.05456 5.76518 7.16365 6.46445 6.46438C7.16371 5.76512 8.05462 5.28892 9.02453 5.09599C9.99443 4.90307 10.9998 5.00208 11.9134 5.38052C12.827 5.75896 13.6079 6.39982 14.1573 7.22207C14.7067 8.04431 15 9.01101 15 9.99992C15.0003 10.6566 14.8712 11.3069 14.62 11.9137C14.3689 12.5205 14.0006 13.0718 13.5362 13.5362C13.0719 14.0005 12.5205 14.3688 11.9138 14.62C11.307 14.8711 10.6567 15.0002 9.99998 14.9999ZM9.99998 6.66659C9.70246 6.67074 9.40685 6.71501 9.12116 6.79818C9.35665 7.11821 9.46966 7.51203 9.43969 7.90823C9.40972 8.30443 9.23875 8.67677 8.95779 8.95773C8.67684 9.23869 8.3045 9.40965 7.9083 9.43963C7.51209 9.4696 7.11827 9.35659 6.79824 9.1211C6.61601 9.79248 6.64891 10.5041 6.8923 11.1558C7.1357 11.8075 7.57733 12.3665 8.15505 12.7541C8.73277 13.1416 9.41749 13.3383 10.1128 13.3163C10.8081 13.2943 11.4791 13.0549 12.0312 12.6316C12.5833 12.2084 12.9888 11.6226 13.1905 10.9569C13.3923 10.2911 13.3802 9.5788 13.156 8.92026C12.9317 8.26171 12.5066 7.69007 11.9405 7.28579C11.3743 6.88151 10.6957 6.66495 9.99998 6.66659Z" fill="white"/>
</svg>
