<svg width="20" height="20" viewBox="0 0 20 20" fill="none" xmlns="http://www.w3.org/2000/svg">
<g clip-path="url(#clip0_6099_1659)">
<path d="M9.99993 14.5001C7.62962 14.5001 5.71087 12.6654 5.53431 10.3404L2.25618 7.80696C1.82524 8.34758 1.42868 8.91914 1.10868 9.54414C1.0372 9.68555 0.999949 9.84179 0.999949 10.0002C0.999949 10.1587 1.0372 10.3149 1.10868 10.4563C2.80337 13.7629 6.15837 16.0001 9.99993 16.0001C10.8409 16.0001 11.6521 15.8751 12.434 15.6732L10.8124 14.4185C10.5446 14.4703 10.2727 14.4976 9.99993 14.5001ZM19.8068 16.3157L16.3521 13.6457C17.4015 12.7613 18.2646 11.677 18.8912 10.456C18.9627 10.3146 18.9999 10.1584 18.9999 9.99993C18.9999 9.84147 18.9627 9.68524 18.8912 9.54383C17.1965 6.23727 13.8415 4.00008 9.99993 4.00008C8.39103 4.00203 6.80825 4.40707 5.39618 5.17821L1.42056 2.10539C1.36871 2.06505 1.30943 2.03532 1.24609 2.0179C1.18276 2.00048 1.11661 1.99571 1.05142 2.00387C0.986243 2.01202 0.923308 2.03294 0.866214 2.06543C0.809121 2.09792 0.758989 2.14134 0.718682 2.19321L0.105245 2.98289C0.0238694 3.08758 -0.0125944 3.2203 0.00387316 3.35186C0.0203407 3.48342 0.088391 3.60306 0.193057 3.68446L18.5793 17.8948C18.6312 17.9351 18.6904 17.9648 18.7538 17.9823C18.8171 17.9997 18.8833 18.0045 18.9484 17.9963C19.0136 17.9881 19.0766 17.9672 19.1337 17.9347C19.1907 17.9022 19.2409 17.8588 19.2812 17.807L19.8949 17.0173C19.9763 16.9125 20.0127 16.7798 19.9962 16.6482C19.9796 16.5167 19.9115 16.3971 19.8068 16.3157ZM14.0656 11.8782L12.8374 10.9288C12.9409 10.6299 12.9957 10.3164 12.9999 10.0001C13.006 9.53704 12.9034 9.07902 12.7004 8.66281C12.4974 8.24661 12.1996 7.88382 11.8309 7.60359C11.4623 7.32336 11.033 7.13349 10.5776 7.04925C10.1223 6.96501 9.65352 6.98873 9.20899 7.11852C9.39744 7.37386 9.49937 7.68273 9.49993 8.00008C9.49527 8.10569 9.47913 8.21047 9.45181 8.31258L7.15149 6.53477C7.95055 5.86702 8.9586 5.50085 9.99993 5.50008C10.591 5.49975 11.1763 5.61592 11.7224 5.84195C12.2685 6.06798 12.7647 6.39944 13.1826 6.81737C13.6006 7.2353 13.932 7.7315 14.1581 8.27762C14.3841 8.82373 14.5003 9.40904 14.4999 10.0001C14.4999 10.676 14.3346 11.306 14.0656 11.8785V11.8782Z" fill="white"/>
</g>
<defs>
<clipPath id="clip0_6099_1659">
<rect width="20" height="20" fill="white"/>
</clipPath>
</defs>
</svg>
