<svg width="257" height="260" viewBox="0 0 257 260" fill="none" xmlns="http://www.w3.org/2000/svg">
<path d="M192.022 8.58538e-06V64.978H127.044V5.7451e-06L192.022 8.58538e-06Z" fill="#D9D9D9"/>
<path d="M192.022 64.978V129.956H127.044L127.044 64.978H192.022Z" fill="#D9D9D9" fill-opacity="0.5"/>
<path d="M127.044 64.978L127.044 129.956L62.0662 129.956L62.0662 64.9779L127.044 64.978Z" fill="#D9D9D9" fill-opacity="0.9"/>
<path d="M192.022 129.956V194.934H127.044L127.044 129.956H192.022Z" fill="#D9D9D9" fill-opacity="0.9"/>
<path d="M192.022 194.934L192.022 259.912H127.044V194.934H192.022Z" fill="#D9D9D9" fill-opacity="0.5"/>
<path d="M257 194.934V259.912H192.022L192.022 194.934L257 194.934Z" fill="#D9D9D9" fill-opacity="0.9"/>
<path d="M65.7264 2.84028e-06V64.978H0.748474L0.748477 0L65.7264 2.84028e-06Z" fill="#D9D9D9" fill-opacity="0.9"/>
</svg>
