<svg width="18" height="18" viewBox="0 0 18 18" fill="none" xmlns="http://www.w3.org/2000/svg">
<path d="M15.1987 12.8363C15.1987 12.8634 15.2095 12.8894 15.2287 12.9086C15.2479 12.9278 15.274 12.9386 15.3011 12.9386C15.3283 12.9386 15.3543 12.9278 15.3735 12.9086C15.3927 12.8894 15.4035 12.8634 15.4035 12.8363C15.4035 12.8091 15.3927 12.7831 15.3735 12.7639C15.3543 12.7447 15.3283 12.7339 15.3011 12.7339C15.274 12.7339 15.2479 12.7447 15.2287 12.7639C15.2095 12.7831 15.1987 12.8091 15.1987 12.8363ZM12.9386 15.1684C12.9386 15.2224 12.9601 15.2742 12.9983 15.3124C13.0364 15.3506 13.0882 15.372 13.1422 15.372C13.1962 15.372 13.248 15.3506 13.2862 15.3124C13.3244 15.2742 13.3459 15.2224 13.3459 15.1684C13.3459 15.1144 13.3244 15.0626 13.2862 15.0244C13.248 14.9862 13.1962 14.9648 13.1422 14.9648C13.0882 14.9648 13.0364 14.9862 12.9983 15.0244C12.9601 15.0626 12.9386 15.1144 12.9386 15.1684ZM9.89212 16.3688C9.89212 16.4499 9.92436 16.5277 9.98174 16.5851C10.0391 16.6425 10.117 16.6748 10.1981 16.6748C10.2793 16.6748 10.3571 16.6425 10.4145 16.5851C10.4719 16.5277 10.5041 16.4499 10.5041 16.3688C10.5041 16.3286 10.4962 16.2888 10.4808 16.2517C10.4654 16.2145 10.4429 16.1808 10.4145 16.1524C10.3861 16.124 10.3523 16.1014 10.3152 16.086C10.2781 16.0707 10.2383 16.0628 10.1981 16.0628C10.1579 16.0628 10.1181 16.0707 10.081 16.086C10.0439 16.1014 10.0102 16.124 9.98174 16.1524C9.95333 16.1808 9.93079 16.2145 9.91541 16.2517C9.90003 16.2888 9.89212 16.3286 9.89212 16.3688ZM6.61274 16.2079C6.61274 16.3159 6.65565 16.4195 6.73202 16.4958C6.8084 16.5722 6.91198 16.6151 7.01999 16.6151C7.128 16.6151 7.23159 16.5722 7.30796 16.4958C7.38434 16.4195 7.42724 16.3159 7.42724 16.2079C7.42724 16.0999 7.38434 15.9963 7.30796 15.9199C7.23159 15.8435 7.128 15.8006 7.01999 15.8006C6.91198 15.8006 6.8084 15.8435 6.73202 15.9199C6.65565 15.9963 6.61274 16.0999 6.61274 16.2079ZM3.70349 14.715C3.70349 14.7819 3.71667 14.8482 3.74229 14.91C3.7679 14.9719 3.80544 15.028 3.85276 15.0754C3.90008 15.1227 3.95626 15.1602 4.01809 15.1858C4.07992 15.2114 4.14619 15.2246 4.21312 15.2246C4.28004 15.2246 4.34631 15.2114 4.40814 15.1858C4.46997 15.1602 4.52615 15.1227 4.57348 15.0754C4.6208 15.028 4.65834 14.9719 4.68395 14.91C4.70956 14.8482 4.72274 14.7819 4.72274 14.715C4.72274 14.6481 4.70956 14.5818 4.68395 14.52C4.65834 14.4581 4.6208 14.402 4.57348 14.3546C4.52615 14.3073 4.46997 14.2698 4.40814 14.2442C4.34631 14.2186 4.28004 14.2054 4.21312 14.2054C4.14619 14.2054 4.07992 14.2186 4.01809 14.2442C3.95626 14.2698 3.90008 14.3073 3.85276 14.3546C3.80544 14.402 3.7679 14.4581 3.74229 14.52C3.71667 14.5818 3.70349 14.6481 3.70349 14.715ZM1.68862 12.177C1.68862 12.3393 1.7531 12.495 1.86787 12.6098C1.98264 12.7245 2.1383 12.789 2.30062 12.789C2.46293 12.789 2.61859 12.7245 2.73337 12.6098C2.84814 12.495 2.91262 12.3393 2.91262 12.177C2.91262 12.0147 2.84814 11.859 2.73337 11.7443C2.61859 11.6295 2.46293 11.565 2.30062 11.565C2.1383 11.565 1.98264 11.6295 1.86787 11.7443C1.7531 11.859 1.68862 12.0147 1.68862 12.177ZM0.932617 9.06075C0.932617 9.15442 0.951066 9.24717 0.98691 9.3337C1.02275 9.42024 1.07529 9.49887 1.14152 9.5651C1.20775 9.63133 1.28638 9.68387 1.37292 9.71971C1.45945 9.75555 1.5522 9.774 1.64587 9.774C1.73953 9.774 1.83228 9.75555 1.91882 9.71971C2.00535 9.68387 2.08398 9.63133 2.15021 9.5651C2.21644 9.49887 2.26898 9.42024 2.30482 9.3337C2.34067 9.24717 2.35912 9.15442 2.35912 9.06075C2.35912 8.87159 2.28397 8.69017 2.15021 8.55641C2.01645 8.42265 1.83503 8.3475 1.64587 8.3475C1.4567 8.3475 1.27528 8.42265 1.14152 8.55641C1.00776 8.69017 0.932617 8.87159 0.932617 9.06075ZM1.55474 5.96475C1.55474 6.07186 1.57584 6.17792 1.61683 6.27688C1.65782 6.37584 1.7179 6.46575 1.79363 6.54149C1.86937 6.61722 1.95928 6.6773 2.05824 6.71829C2.1572 6.75928 2.26326 6.78038 2.37037 6.78038C2.58668 6.78038 2.79414 6.69445 2.9471 6.54149C3.10006 6.38853 3.18599 6.18107 3.18599 5.96475C3.18599 5.74844 3.10006 5.54098 2.9471 5.38802C2.79414 5.23506 2.58668 5.14913 2.37037 5.14913C2.15405 5.14913 1.94659 5.23506 1.79363 5.38802C1.64067 5.54098 1.55474 5.74844 1.55474 5.96475ZM3.42112 3.46838C3.42112 3.58893 3.44486 3.7083 3.491 3.81968C3.53713 3.93106 3.60475 4.03226 3.68999 4.1175C3.77524 4.20275 3.87644 4.27037 3.98781 4.3165C4.09919 4.36263 4.21856 4.38638 4.33912 4.38638C4.45967 4.38638 4.57904 4.36263 4.69042 4.3165C4.8018 4.27037 4.903 4.20275 4.98824 4.1175C5.07349 4.03226 5.14111 3.93106 5.18724 3.81968C5.23337 3.7083 5.25712 3.58893 5.25712 3.46838C5.25712 3.22491 5.1604 2.99141 4.98824 2.81925C4.81608 2.6471 4.58259 2.55038 4.33912 2.55038C4.09565 2.55038 3.86215 2.6471 3.68999 2.81925C3.51784 2.99141 3.42112 3.22491 3.42112 3.46838ZM6.16162 2.0385C6.16162 2.17235 6.18798 2.30489 6.2392 2.42855C6.29043 2.55221 6.3655 2.66458 6.46015 2.75922C6.5548 2.85387 6.66716 2.92894 6.79082 2.98017C6.91448 3.03139 7.04702 3.05775 7.18087 3.05775C7.45119 3.05775 7.71044 2.95037 7.90159 2.75922C8.09273 2.56807 8.20012 2.30882 8.20012 2.0385C8.20012 1.76818 8.09273 1.50893 7.90159 1.31778C7.71044 1.12664 7.45119 1.01925 7.18087 1.01925C6.91055 1.01925 6.6513 1.12664 6.46015 1.31778C6.269 1.50893 6.16162 1.76818 6.16162 2.0385ZM9.23962 1.94963C9.23962 2.2471 9.35779 2.53239 9.56813 2.74274C9.77848 2.95308 10.0638 3.07125 10.3612 3.07125C10.6587 3.07125 10.944 2.95308 11.1544 2.74274C11.3647 2.53239 11.4829 2.2471 11.4829 1.94963C11.4829 1.65215 11.3647 1.36686 11.1544 1.15652C10.944 0.946174 10.6587 0.828003 10.3612 0.828003C10.0638 0.828003 9.77848 0.946174 9.56813 1.15652C9.35779 1.36686 9.23962 1.65215 9.23962 1.94963ZM12.0577 3.2175C12.0577 3.54183 12.1866 3.85287 12.4159 4.08221C12.6452 4.31154 12.9563 4.44038 13.2806 4.44038C13.6049 4.44038 13.916 4.31154 14.1453 4.08221C14.3747 3.85287 14.5035 3.54183 14.5035 3.2175C14.5035 2.89318 14.3747 2.58213 14.1453 2.3528C13.916 2.12347 13.6049 1.99463 13.2806 1.99463C12.9563 1.99463 12.6452 2.12347 12.4159 2.3528C12.1866 2.58213 12.0577 2.89318 12.0577 3.2175ZM14.0602 5.59913C14.0602 5.77316 14.0945 5.94549 14.1611 6.10628C14.2277 6.26707 14.3253 6.41316 14.4484 6.53622C14.5715 6.65928 14.7176 6.7569 14.8783 6.8235C15.0391 6.8901 15.2115 6.92438 15.3855 6.92438C15.5595 6.92438 15.7319 6.8901 15.8926 6.8235C16.0534 6.7569 16.1995 6.65928 16.3226 6.53622C16.4456 6.41316 16.5433 6.26707 16.6099 6.10628C16.6765 5.94549 16.7107 5.77316 16.7107 5.59913C16.7107 5.42509 16.6765 5.25276 16.6099 5.09198C16.5433 4.93119 16.4456 4.7851 16.3226 4.66203C16.1995 4.53897 16.0534 4.44136 15.8926 4.37476C15.7319 4.30816 15.5595 4.27388 15.3855 4.27388C15.2115 4.27388 15.0391 4.30816 14.8783 4.37476C14.7176 4.44136 14.5715 4.53897 14.4484 4.66203C14.3253 4.7851 14.2277 4.93119 14.1611 5.09198C14.0945 5.25276 14.0602 5.42509 14.0602 5.59913ZM14.8567 8.68388C14.8567 8.87136 14.8937 9.057 14.9654 9.23021C15.0372 9.40341 15.1423 9.56079 15.2749 9.69336C15.4075 9.82593 15.5648 9.93109 15.738 10.0028C15.9112 10.0746 16.0969 10.1115 16.2844 10.1115C16.663 10.1115 17.0261 9.96109 17.2939 9.69336C17.5616 9.42563 17.712 9.06251 17.712 8.68388C17.712 8.30525 17.5616 7.94213 17.2939 7.67439C17.0261 7.40666 16.663 7.25625 16.2844 7.25625C15.9057 7.25625 15.5426 7.40666 15.2749 7.67439C15.0072 7.94213 14.8567 8.30525 14.8567 8.68388Z" fill="black"/>
</svg>
