<svg width="18" height="24" viewBox="0 0 18 24" fill="none" xmlns="http://www.w3.org/2000/svg">
<path d="M8.93385 10.8346C10.2529 10.8346 11.5179 10.3105 12.4505 9.37776C13.3831 8.44498 13.907 7.1798 13.9066 5.8607C13.9064 4.5418 13.3821 3.27683 12.4491 2.34445C11.5162 1.41186 10.2509 0.888366 8.93184 0.888916C7.61294 0.889307 6.34812 1.41382 5.41579 2.347C4.48361 3.28013 3.96026 4.5455 3.96106 5.86445C3.96321 7.18241 4.48791 8.44583 5.42009 9.37741C6.35227 10.3092 7.61589 10.8331 8.93379 10.8347L8.93385 10.8346ZM8.93385 2.01261V2.01241C9.95553 2.01241 10.9354 2.41831 11.6576 3.14081C12.3801 3.86327 12.786 4.84313 12.786 5.86461C12.786 6.88629 12.3801 7.86615 11.6576 8.58861C10.9353 9.31107 9.95553 9.71681 8.93385 9.71681C7.91216 9.71681 6.9323 9.3111 6.21004 8.58861C5.48758 7.86615 5.08165 6.88629 5.08165 5.86461C5.08243 4.84333 5.48852 3.86387 6.21079 3.14156C6.93307 2.41924 7.91236 2.01316 8.93385 2.01241V2.01261Z" fill="#FF5031"/>
<path d="M2.62782 23.1112H15.235C15.755 23.1112 16.2539 22.9046 16.6217 22.5369C16.9895 22.1691 17.1961 21.6702 17.1961 21.1501V20.6373C17.14 18.4828 16.2445 16.4352 14.7007 14.9311C13.1569 13.427 11.0867 12.5852 8.93141 12.5852C6.77588 12.5852 4.70575 13.4269 3.16212 14.9311C1.61849 16.4353 0.72303 18.4829 0.666748 20.6373V21.1501C0.666748 21.6702 0.873506 22.1691 1.24128 22.5369C1.60906 22.9047 2.10777 23.1112 2.62802 23.1112H2.62782ZM1.78729 20.6373C1.85744 18.1326 3.23421 15.8475 5.4159 14.6149C7.5974 13.3824 10.2652 13.3824 12.4469 14.6149C14.6284 15.8475 16.0052 18.1325 16.0753 20.6373V21.1501C16.0753 21.3729 15.9868 21.5867 15.8293 21.7444C15.6716 21.9019 15.4578 21.9907 15.235 21.9907H2.62782C2.40484 21.9907 2.19104 21.9019 2.03353 21.7444C1.87582 21.5867 1.78729 21.3729 1.78729 21.1501L1.78729 20.6373Z" fill="#FF5031"/>
</svg>
