<svg width="24" height="24" viewBox="0 0 24 24" fill="none" xmlns="http://www.w3.org/2000/svg">
<path d="M10.8869 3.36667C12.331 3.36535 13.743 3.79236 14.9444 4.5937C16.1457 5.39503 17.0824 6.53467 17.636 7.86845C18.1895 9.20224 18.335 10.6702 18.0541 12.0867C17.7732 13.5032 17.0784 14.8046 16.0578 15.8262C15.0371 16.8478 13.7364 17.5437 12.3202 17.8259C10.9039 18.1081 9.43579 17.9639 8.1015 17.4116C6.76722 16.8593 5.62672 15.9236 4.82429 14.723C4.02186 13.5224 3.59355 12.1108 3.59355 10.6667C3.60231 8.73444 4.37331 6.88374 5.73899 5.51681C7.10467 4.14988 8.95466 3.37719 10.8869 3.36667ZM10.8869 2C9.17278 2 7.49717 2.50829 6.07194 3.4606C4.64672 4.4129 3.53589 5.76645 2.87993 7.35008C2.22397 8.9337 2.05234 10.6763 2.38675 12.3574C2.72115 14.0386 3.54657 15.5829 4.75863 16.7949C5.97068 18.007 7.51493 18.8324 9.1961 19.1668C10.8773 19.5012 12.6198 19.3296 14.2035 18.6736C15.7871 18.0177 17.1406 16.9068 18.093 15.4816C19.0453 14.0564 19.5536 12.3808 19.5536 10.6667C19.5536 8.36812 18.6405 6.16372 17.0151 4.53841C15.3898 2.91309 13.1854 2 10.8869 2Z" fill="#1E0A11"/>
<path d="M23.3331 22.1928L18.4198 17.2461L17.4731 18.1861L22.3865 23.1328C22.4482 23.1949 22.5216 23.2443 22.6024 23.2781C22.6832 23.3119 22.7699 23.3295 22.8575 23.3298C22.945 23.3301 23.0318 23.3132 23.1129 23.2799C23.1939 23.2467 23.2676 23.1978 23.3298 23.1361C23.392 23.0744 23.4414 23.001 23.4752 22.9202C23.509 22.8394 23.5265 22.7527 23.5268 22.6651C23.5272 22.5775 23.5102 22.4907 23.477 22.4097C23.4437 22.3286 23.3949 22.2549 23.3331 22.1928Z" fill="#1E0A11"/>
</svg>
